<svg xmlns="http://www.w3.org/2000/svg" xmlns:xlink="http://www.w3.org/1999/xlink" width="57.61mm" height="63.25mm" viewBox="0 0 163.3 179.28"><defs><style>.a{fill:none;}.b{fill:#007bff;}.c{fill:#dc3545;}.d{clip-path:url(#a);}</style><clipPath id="a"><rect class="a" x="48.69" y="75.12" width="36.15" height="34.88"/></clipPath></defs><title>SRCF-logo-2020</title><path class="b" d="M15,141.27V115.49q0-19.72,9.5-28.87T50,77.48a40.12,40.12,0,0,1,17.78,3.74A27.57,27.57,0,0,1,79.65,91.88a30.21,30.21,0,0,1,4.18,16v.43H73.32v-.43q0-9.64-6.27-15.26T50,87q-12,0-18.22,6.77t-6.26,22.17v25.92q0,27.79,24.62,27.79,10.8,0,17-5.54t6.2-15.19v-.58H83.54v.58q0,14-9.07,22.17T50,179.28q-16,0-25.49-9.14T15,141.27Z"/><path class="c" d="M0,72.57H10.37Q12.38,92.31,34,92.3q11.24,0,17.07-4.75t5.83-13.82c0-5.48-1.54-9.6-4.61-12.39s-7.73-4.7-14-5.76L27.07,53.71Q15,51.7,8.5,45.43T2,27.79Q2,14.69,10.8,7.34T34,0Q47.23,0,55.65,6.84t10,20.81H55.29Q53.57,9.07,33.84,9.07q-10.23,0-15.91,4.83T12.24,27.07q0,7.35,4.39,11.45T30,44.21l11.52,2Q54,48.38,60.62,54.86t6.63,18.29q0,13.53-9.08,20.95t-24.91,7.42q-15,0-23.47-7.35T0,72.57Z"/><path class="c" d="M95.9,57v43.63H85.39V1.3h36.86q14,0,22,7.27t8,20.66q0,10.65-5.62,17.57T130.89,56l23.48,44.64h-12.1L119.81,57ZM121.39,48q9.64,0,15-4.82t5.32-13.75q0-9.22-5.25-13.9t-15-4.68H95.9V48Z"/><g class="d"><path class="b" d="M15,141.27V115.49q0-19.72,9.5-28.87T50,77.48A40.15,40.15,0,0,1,67.8,81.22,27.57,27.57,0,0,1,79.68,91.88a30.3,30.3,0,0,1,4.18,16v.43H73.34v-.43q0-9.64-6.26-15.26T50,87q-12,0-18.22,6.77t-6.26,22.17v25.92q0,27.79,24.62,27.79,10.8,0,17-5.54t6.19-15.19v-.58H83.57v.58q0,14-9.07,22.17T50,179.28q-16,0-25.49-9.14T15,141.27Z"/><path class="b" d="M115.39,123.12H158v9.51H115.39v45.5H104.88V78.77h60.33v9.5H115.39Z"/></g><path class="b" d="M113.48,121.86H156.1v9.5H113.48v45.5H103V77.5H163.3V87H113.48Z"/></svg>